# xmcd
#
# Track frame offsets:
#	150
#	11954
#	23950
#	38687
#	52163
#	67170
#	79593
#	92035
#	104862
#	118593
#	132993
#	147964
#	162229
#	178055
#	191506
#	205281
#
# Disc length: 2922 seconds
#
# Revision: 0
# Processed by: cddbd v1.5.2PL0 Copyright (c) Steve Scherf et al.
# Submitted via: EasyCDDAExtractor 16.0.6.1
#
DISCID=ee0b6810
DTITLE=João Lucas and Marcelo - João Lucas and Marcelo Agora é Vuco Vuco
DYEAR=2012
DGENRE=Sertanejo
TTITLE0=Eu Quero Tchu, Eu Quero Tcha
TTITLE1=Vuco Vuco
TTITLE2=Direto ao Ponto
TTITLE3=Vem Papá o Papai
TTITLE4=Frases de Fogo
TTITLE5=As Mina Pira
TTITLE6=Vícios e Defeitos
TTITLE7=Ioiô
TTITLE8=Milhares de Emoções
TTITLE9=O Pegador
TTITLE10=Além do Céu
TTITLE11=Rastros e Sinais
TTITLE12=Se Prepara Pra Me Ter
TTITLE13=De Janeiro a Janeiro
TTITLE14=Na Levada do Pan
TTITLE15=Balada Sertaneja
EXTD=
EXTT0=
EXTT1=
EXTT2=
EXTT3=
EXTT4=
EXTT5=
EXTT6=
EXTT7=
EXTT8=
EXTT9=
EXTT10=
EXTT11=
EXTT12=
EXTT13=
EXTT14=
EXTT15=
PLAYORDER=
